<svg width="44" height="44" viewBox="0 0 44 44" fill="none" xmlns="http://www.w3.org/2000/svg">
<path d="M39.1172 36.0492C38.9367 36 38.718 36.0273 38.4664 36.1203C35.0977 37.6625 31.8219 38.7617 28.6391 39.4125C21.7649 40.8125 15.0656 40.0797 8.5469 37.2195C6.73674 36.4211 4.22112 35.0758 1.00002 33.1726C0.917024 33.1071 0.81577 33.0689 0.710178 33.0633C0.600803 33.0578 0.507834 33.0687 0.420334 33.1125C0.332834 33.1562 0.267209 33.2109 0.21799 33.282C0.168771 33.3531 0.157834 33.4516 0.196116 33.5773C0.228928 33.6977 0.310959 33.8344 0.447678 33.982C1.01643 34.6492 1.7219 35.3601 2.55862 36.1148C3.39533 36.8695 4.50549 37.7227 5.88908 38.6742C7.27268 39.6258 8.7219 40.4734 10.2258 41.2117C11.7352 41.95 13.4852 42.5734 15.4813 43.0766C17.4774 43.5797 19.4735 43.8312 21.4641 43.8312C23.4438 43.8312 25.3688 43.6289 27.2336 43.2351C29.1039 42.8359 30.6789 42.3656 31.9641 41.8187C33.2438 41.2773 34.425 40.6703 35.5078 40.0141C36.5906 39.3578 37.3891 38.8 37.9086 38.357C38.4281 37.9086 38.8 37.5586 39.0133 37.2961C39.2649 36.9844 39.3906 36.7164 39.3906 36.4812C39.3961 36.2351 39.2977 36.093 39.1172 36.0492ZM22.8422 13.0367C22.011 13.1078 21.0102 13.2609 19.8344 13.4906C18.6586 13.7148 17.5703 13.9992 16.5641 14.3328C15.5578 14.6664 14.5297 15.1312 13.4852 15.7219C12.4352 16.3125 11.5438 16.9906 10.8055 17.7453C10.0672 18.5 9.46565 19.4461 8.99533 20.5891C8.52502 21.7266 8.28986 22.9789 8.28986 24.3461C8.28986 25.8281 8.5469 27.1461 9.0719 28.3109C9.59143 29.4758 10.286 30.3891 11.161 31.0672C12.0305 31.7453 13.0203 32.2758 14.1141 32.6641C15.2078 33.0523 16.3672 33.2273 17.5703 33.1781C18.7735 33.1289 19.9492 32.943 21.0922 32.6148C22.2297 32.2922 23.3016 31.7727 24.2969 31.0672C25.2922 30.3617 26.1071 29.525 26.7469 28.568C26.9821 28.9289 27.1899 29.1969 27.3758 29.3719L27.8516 29.8586C28.1688 30.1812 28.6555 30.657 29.3117 31.2859C29.9625 31.9148 30.6297 32.5273 31.2969 33.1289L37.0063 27.6656L36.6781 27.3976C36.443 27.2172 36.1641 26.9602 35.8469 26.6156C35.5297 26.2766 35.2125 25.8992 34.9063 25.4945C34.5946 25.0898 34.3266 24.6141 34.1024 24.0781C33.8781 23.5422 33.7633 23.0226 33.7633 22.5195V8.14765C33.7633 7.59531 33.6594 6.99921 33.4516 6.3539C33.2383 5.71406 32.8664 5.01406 32.3196 4.25937C31.7727 3.50468 31.0946 2.82656 30.2852 2.23593C29.4703 1.64531 28.3875 1.14218 27.0258 0.737494C25.6696 0.332806 24.1492 0.130463 22.4758 0.130463C20.7641 0.130463 19.1727 0.332806 17.6852 0.726556C16.2031 1.12578 14.9344 1.65624 13.8735 2.32343C12.818 2.99062 11.9102 3.76171 11.1555 4.64218C10.4008 5.52265 9.83752 6.4414 9.47112 7.39843C9.10471 8.35546 8.91877 9.32343 8.91877 10.3023L16.3125 10.9531C16.6133 10.0562 17.018 9.27968 17.5156 8.61249C18.0188 7.94531 18.4946 7.46406 18.9266 7.16328C19.3641 6.86249 19.8344 6.62187 20.3321 6.4414C20.8352 6.26093 21.1742 6.16796 21.3492 6.14609C21.5242 6.12968 21.661 6.12421 21.7649 6.12421C23.225 6.12421 24.2367 6.55624 24.8055 7.41484C25.161 7.93437 25.336 8.72187 25.336 9.78281V12.8781C24.5047 12.9109 23.6735 12.9656 22.8422 13.0367ZM25.3414 21.3437C25.3414 22.2516 25.2211 23.0773 24.986 23.8047C24.4828 25.3961 23.5258 26.3969 22.1203 26.8016C20.8953 27.1625 19.7305 26.982 18.6258 26.2656C17.45 25.5 16.8649 24.4172 16.8649 23.0226C16.8649 21.9344 17.1383 21.0047 17.6852 20.2281C18.2321 19.457 18.9594 18.8773 19.8727 18.4945C20.786 18.1117 21.6774 17.8383 22.5524 17.6797C23.4219 17.5156 24.3571 17.4172 25.3414 17.3844V21.3437ZM43.6727 33.3148C43.4375 33.0195 42.8031 32.8281 41.7641 32.7297C40.725 32.6312 39.8227 32.6367 39.0461 32.7516C38.2094 32.85 37.3453 33.0906 36.4594 33.4844C35.568 33.8727 35.1797 34.2008 35.2781 34.4578L35.3164 34.5289L35.3656 34.5672L35.4422 34.5781H35.6938C35.7375 34.5781 35.7922 34.5727 35.8688 34.5672C35.9453 34.5617 36.0164 34.5508 36.0821 34.5453C36.1477 34.5398 36.2406 34.5289 36.361 34.5234C36.4758 34.518 36.5852 34.5016 36.6891 34.4851C36.7055 34.4851 36.8914 34.4687 37.2524 34.4359C37.6133 34.4031 37.8758 34.3812 38.0344 34.3648C38.193 34.3484 38.461 34.332 38.8274 34.3156C39.1938 34.2992 39.4891 34.2992 39.7078 34.3156C39.9266 34.332 40.1727 34.3539 40.4516 34.3758C40.7305 34.3977 40.9547 34.4469 41.1297 34.5234C41.3047 34.5945 41.436 34.6875 41.518 34.8023C41.8024 35.1633 41.7477 35.9617 41.3539 37.2031C40.9602 38.4445 40.5883 39.4344 40.2383 40.1672C40.0852 40.4789 40.0852 40.6703 40.2383 40.7523C40.3914 40.8344 40.6047 40.7578 40.8891 40.5336C41.7422 39.8664 42.4531 38.8601 43.0274 37.5094C43.361 36.7109 43.6016 35.8797 43.7438 35.0102C43.875 34.1406 43.8531 33.5773 43.6727 33.3148Z" fill="black"/>
</svg>
