<?xml version="1.0" encoding="UTF-8"?>
<svg id="Layer_2" data-name="Layer 2" xmlns="http://www.w3.org/2000/svg" viewBox="0 0 660.35 192.54">
  <defs>
    <style>
      .cls-1 {
        fill: #fff;
        stroke-width: 0px;
      }
    </style>
  </defs>
  <g id="_3" data-name="3">
    <g>
      <polygon class="cls-1" points="58.29 105.83 77.49 105.83 77.49 192.54 135.77 192.54 135.77 124.98 116.57 124.98 116.57 173.34 96.69 173.34 96.69 105.91 121.83 105.91 121.83 105.83 121.83 86.71 121.83 86.62 96.69 86.62 96.69 19.2 116.57 19.2 116.57 48.02 135.77 48.02 135.77 0 77.49 0 77.49 86.62 58.29 86.62 58.29 0 0 0 0 48.02 19.2 48.02 19.2 19.2 39.09 19.2 39.09 86.62 13.34 86.62 13.34 105.83 13.94 105.83 13.94 105.91 39.09 105.91 39.09 173.34 19.2 173.34 19.2 124.98 0 124.98 0 192.54 58.29 192.54 58.29 105.83"/>
      <g>
        <path class="cls-1" d="M190.67,72.18v29.54h22.08v13.8h-37.96V18.91h37.27v13.8h-21.39v25.53h18.63v13.94h-18.63Z"/>
        <path class="cls-1" d="M264.88,91.74c0,15.86-7.7,23.78-23.1,23.78s-23.1-7.93-23.1-23.78v-16.31h14.4v17.53c0,5.98,2.72,8.97,8.15,8.97,2.81,0,4.85-.72,6.12-2.17,1.27-1.45,1.9-3.71,1.9-6.79V18.91h15.63v72.84Z"/>
        <path class="cls-1" d="M293.09,72.18v29.54h22.08v13.8h-37.96V18.91h37.27v13.8h-21.39v25.53h18.63v13.94h-18.63Z"/>
        <path class="cls-1" d="M337.43,81.27v11.64c0,3.12.58,5.44,1.74,6.96,1.16,1.52,3.08,2.27,5.75,2.27s4.73-.76,5.89-2.27c1.16-1.52,1.74-3.84,1.74-6.96v-2.01c0-3.75-1-7.03-3.01-9.84-2.01-2.81-4.46-5.24-7.36-7.29-2.9-2.05-5.8-4.26-8.7-6.62-2.9-2.36-5.35-5.64-7.36-9.84-2.01-4.19-3.01-9.23-3.01-15.12v-.27c0-15.34,7.49-23.02,22.48-23.02s22.35,8.25,22.35,24.76v7.09h-14.32v-9.23c0-3.12-.58-5.44-1.74-6.96-1.16-1.52-3.08-2.27-5.75-2.27s-4.73.76-5.89,2.27c-1.16,1.52-1.74,3.84-1.74,6.96v.8c0,3.21.74,6.09,2.21,8.63,1.47,2.54,3.28,4.62,5.42,6.22,2.14,1.61,4.5,3.44,7.09,5.49,2.59,2.05,4.95,4.15,7.09,6.29,2.14,2.14,3.95,5.13,5.42,8.97,1.47,3.84,2.21,8.21,2.21,13.11v1.61c0,15.26-7.49,22.88-22.48,22.88s-22.35-8.25-22.35-24.76v-9.5h14.32Z"/>
        <path class="cls-1" d="M383.15,115.52V18.91h19.32c15.37,0,23.05,7.5,23.05,22.5v51.62c0,15-7.68,22.5-23.05,22.5h-19.32ZM401.64,29.12h-6.76v76.19h6.76c4.42,0,7.54-.92,9.39-2.76,1.84-1.84,2.76-4.92,2.76-9.25v-52.17c0-4.32-.92-7.41-2.76-9.25-1.84-1.84-4.97-2.76-9.39-2.76Z"/>
        <path class="cls-1" d="M450.92,70.25v35.06h22.91v10.21h-34.64V18.91h33.95v10.21h-22.22v30.92h19.74v10.21h-19.74Z"/>
        <path class="cls-1" d="M493.55,81.53v12.71c0,3.84.69,6.67,2.07,8.5,1.38,1.83,3.72,2.74,7.03,2.74s5.64-.91,7.03-2.74c1.38-1.83,2.07-4.66,2.07-8.5v-1.87c0-3.66-.72-6.94-2.14-9.84-1.43-2.9-3.21-5.24-5.35-7.03-2.14-1.78-4.46-3.77-6.96-5.96-2.5-2.19-4.82-4.37-6.96-6.56-2.14-2.19-3.93-5.2-5.35-9.03-1.43-3.83-2.14-8.21-2.14-13.11v-.27c0-14.45,6.73-21.68,20.21-21.68s20.07,7.58,20.07,22.75v8.7h-10.57v-10.17c0-3.83-.71-6.67-2.14-8.5-1.43-1.83-3.79-2.74-7.09-2.74s-5.64.91-7.03,2.74c-1.38,1.83-2.07,4.66-2.07,8.5v.8c0,3.21.54,6.09,1.61,8.63,1.07,2.54,2.45,4.71,4.15,6.49,1.69,1.79,3.57,3.52,5.62,5.22,2.05,1.7,4.1,3.48,6.16,5.35,2.05,1.87,3.92,3.93,5.62,6.16,1.69,2.23,3.08,5.04,4.15,8.43,1.07,3.39,1.61,7.18,1.61,11.37v1.2c0,14.45-6.69,21.68-20.07,21.68s-20.21-7.58-20.21-22.75v-11.24h10.71Z"/>
        <path class="cls-1" d="M535.81,115.52V18.91h11.55v96.62h-11.55Z"/>
        <path class="cls-1" d="M591.5,51.83v-11.64c0-7.49-3.21-11.24-9.64-11.24s-9.63,3.75-9.63,11.24v54.06c0,7.49,3.21,11.24,9.63,11.24s9.64-3.75,9.64-11.24v-23.02h-9.64v-9.23h20.61v53.53h-5.89l-1.07-9.37c-2.77,6.25-8.16,9.37-16.19,9.37-12.31,0-18.47-7.58-18.47-22.75v-51.12c0-15.17,6.87-22.75,20.61-22.75s20.74,7.58,20.74,22.75v10.17h-10.71Z"/>
        <path class="cls-1" d="M650.42,18.91h9.94v96.62h-13.11l-17.11-58.66c-.64-2.39-2.44-9.71-5.38-21.95.55,9.2.83,16.61.83,22.22v58.38h-10.08V18.91h15.73l14.63,50.52c.55,2.12,1.47,5.75,2.76,10.9,1.29,5.15,2.21,8.79,2.76,10.9-.64-10.49-.97-17.85-.97-22.08V18.91Z"/>
      </g>
      <g>
        <path class="cls-1" d="M174.87,135.22h5.68c3.37,0,6.78,1.18,6.78,6.62v15.19c0,5.44-3.41,6.62-6.78,6.62h-5.68v-28.42ZM178.32,138.23v22.41h1.99c2.6,0,3.57-.97,3.57-3.53v-15.35c0-2.56-.97-3.53-3.57-3.53h-1.99Z"/>
        <path class="cls-1" d="M191.03,139.04v-3.82h3.09v3.82h-3.09ZM191.03,163.65v-21.03h3.09v21.03h-3.09Z"/>
        <path class="cls-1" d="M205.36,158.16c0-4.51-8.04-2.92-8.04-10.23v-.08c0-3.9,2.03-5.68,5.6-5.68s5.56,1.83,5.56,6.05v1.02h-2.88v-1.3c0-2.07-.65-3.25-2.6-3.25s-2.6,1.1-2.6,3.04v.2c0,4.51,8.04,3.09,8.04,10.31v.08c0,3.98-2.03,5.77-5.56,5.77s-5.56-1.83-5.56-6.05v-1.34h2.84v1.62c0,2.07.69,3.25,2.6,3.25s2.6-1.1,2.6-3.05v-.37Z"/>
        <path class="cls-1" d="M214.33,153.98v4.22c0,2.11.77,3.21,2.72,3.21s2.68-1.1,2.68-3.21v-1.71h2.88v1.34c0,4.34-2.03,6.25-5.68,6.25s-5.68-1.91-5.68-6.25v-9.42c0-4.34,2.03-6.25,5.68-6.25s5.68,1.91,5.68,6.25v5.56h-8.28ZM214.33,151.38h5.4v-3.33c0-2.11-.77-3.21-2.68-3.21s-2.72,1.1-2.72,3.21v3.33Z"/>
        <path class="cls-1" d="M225.9,163.65v-21.03h2.88v2.8c.57-1.79,2.15-3.25,4.34-3.25,2.52,0,4.39,1.3,4.39,5.68v15.79h-3.09v-15.63c0-2.48-.85-3.17-2.44-3.17-1.71,0-3,1.62-3,3.53v15.27h-3.09ZM236.38,136.36c-.08,2.52-1.18,3.57-2.84,3.57-1.75,0-2.72-1.3-3.98-1.3-.81,0-1.01.69-1.1,1.42h-1.62c.04-2.52,1.14-3.57,2.8-3.57s2.72,1.34,3.98,1.34c.81,0,1.02-.73,1.1-1.46h1.67Z"/>
        <path class="cls-1" d="M249.05,161.01c-.61,1.71-2.11,3.09-4.26,3.09-2.48,0-4.38-1.18-4.38-5.4v-.37c0-7.51,8.53-6.25,8.53-10.03v-.28c0-2.07-.73-3.21-2.56-3.21s-2.6,1.14-2.6,3.21v1.5h-2.88v-1.14c0-4.34,1.95-6.21,5.6-6.21s5.52,1.87,5.52,6.21v8.4c0,3.65.04,5.04.41,6.86h-2.96c-.24-.65-.37-1.62-.41-2.64ZM248.92,152.4c-2.19,1.46-5.44,2.03-5.44,5.68v.37c0,2.4.85,3,2.44,3,1.71,0,3-1.62,3-3.57v-5.48Z"/>
        <path class="cls-1" d="M263.86,161.09c-.65,1.71-2.19,3-4.26,3-2.52,0-4.39-1.3-4.39-5.68v-10.56c0-4.38,1.87-5.68,4.39-5.68,1.95,0,3.45,1.18,4.14,2.76v-9.7h3.09v21.56c0,3.65.04,5.04.41,6.86h-2.96c-.24-.65-.37-1.54-.41-2.56ZM263.74,148.38c0-1.91-1.3-3.53-3-3.53-1.58,0-2.44.69-2.44,3.17v10.23c0,2.48.85,3.17,2.44,3.17,1.71,0,3-1.62,3-3.53v-9.5Z"/>
        <path class="cls-1" d="M276.04,164.09c-3.69,0-5.81-1.91-5.81-6.25v-9.42c0-4.34,2.11-6.25,5.81-6.25s5.77,1.91,5.77,6.25v9.42c0,4.34-2.11,6.25-5.77,6.25ZM276.04,144.85c-1.95,0-2.72,1.1-2.72,3.21v10.15c0,2.11.77,3.21,2.72,3.21s2.68-1.1,2.68-3.21v-10.15c0-2.11-.77-3.21-2.68-3.21Z"/>
        <path class="cls-1" d="M285.22,163.65v-21.03h2.88v2.76c.57-1.79,2.07-3.21,4.26-3.21,2.48,0,4.06,1.26,4.06,5.6v5.36h-2.88v-5.12c0-2.48-.73-3.17-2.31-3.17-1.71,0-2.92,1.62-2.92,3.53v15.27h-3.09Z"/>
        <path class="cls-1" d="M315.39,141.23c0-2.27-.89-3.41-2.92-3.41s-2.92,1.14-2.92,3.41v16.4c0,2.27.85,3.41,2.92,3.41s2.92-1.14,2.92-3.41v-6.98h-2.92v-2.8h6.25v15.79h-1.79l-.32-2.4c-.85,1.95-2.6,2.84-4.91,2.84-3.33,0-5.6-1.87-5.6-6.9v-15.51c0-4.83,2.31-6.9,6.25-6.9s6.29,2.07,6.29,6.9v3.09h-3.25v-3.53Z"/>
        <path class="cls-1" d="M322.12,163.65v-21.03h2.88v2.76c.57-1.79,2.07-3.21,4.26-3.21,2.48,0,4.06,1.26,4.06,5.6v5.36h-2.88v-5.12c0-2.48-.73-3.17-2.31-3.17-1.71,0-2.92,1.62-2.92,3.53v15.27h-3.09Z"/>
        <path class="cls-1" d="M343.76,161.01c-.61,1.71-2.11,3.09-4.26,3.09-2.48,0-4.38-1.18-4.38-5.4v-.37c0-7.51,8.53-6.25,8.53-10.03v-.28c0-2.07-.73-3.21-2.56-3.21s-2.6,1.14-2.6,3.21v1.5h-2.88v-1.14c0-4.34,1.95-6.21,5.6-6.21s5.52,1.87,5.52,6.21v8.4c0,3.65.04,5.04.41,6.86h-2.96c-.24-.65-.37-1.62-.41-2.64ZM343.64,152.4c-2.19,1.46-5.44,2.03-5.44,5.68v.37c0,2.4.85,3,2.44,3,1.71,0,3-1.62,3-3.57v-5.48ZM341.82,135.51h3.21l-3.78,4.99h-2.07l2.64-4.99Z"/>
        <path class="cls-1" d="M354.04,142.61h4.1v2.68h-4.1v18.35h-3.05v-18.35h-1.83v-2.68h1.83v-3.05c0-3.33,1.42-4.79,4.59-4.79.93,0,1.87.16,2.56.45v2.52c-.57-.24-1.14-.37-1.99-.37-1.46,0-2.11.65-2.11,2.64v2.6ZM359.8,139.04v-3.82h3.09v3.82h-3.09ZM359.8,163.65v-21.03h3.09v21.03h-3.09Z"/>
        <path class="cls-1" d="M374.82,150.12v-2.07c0-2.11-.77-3.21-2.68-3.21s-2.72,1.1-2.72,3.21v10.15c0,2.11.77,3.21,2.72,3.21s2.68-1.1,2.68-3.21v-2.48h2.88v2.11c0,4.34-2.03,6.25-5.68,6.25s-5.68-1.91-5.68-6.25v-9.42c0-4.34,2.03-6.25,5.68-6.25s5.68,1.91,5.68,6.25v1.71h-2.88Z"/>
        <path class="cls-1" d="M386.31,164.09c-3.69,0-5.81-1.91-5.81-6.25v-9.42c0-4.34,2.11-6.25,5.81-6.25s5.77,1.91,5.77,6.25v9.42c0,4.34-2.11,6.25-5.77,6.25ZM386.31,144.85c-1.95,0-2.72,1.1-2.72,3.21v10.15c0,2.11.77,3.21,2.72,3.21s2.68-1.1,2.68-3.21v-10.15c0-2.11-.77-3.21-2.68-3.21Z"/>
        <path class="cls-1" d="M414.89,158.49c.73-1.42,1.22-3.53,1.22-6.54v-5.08h2.68v4.75c0,4.18-.93,7.11-2.27,9.05.41.41.93.57,1.62.57.65,0,1.06-.08,1.42-.24v2.64c-.57.2-1.34.33-2.11.33-1.34,0-2.44-.28-3.33-.97-1.3.77-2.72,1.1-4.02,1.1-2.44,0-4.3-.37-6.13-4.34l-1.1-2.4c-.77-1.66-1.1-3.13-1.1-4.43,0-2.44,1.22-4.14,3.25-5.6l1.38-1.02c-1.22-3.09-1.54-4.99-1.54-6.5,0-2.64,1.54-5.04,4.75-5.04s4.55,2.03,4.55,4.71-1.22,4.63-3.94,6.74c3.29,8,4.26,10.6,4.67,12.26ZM412.66,160.89l-5.32-12.38-.85.65c-.97.77-1.5,1.75-1.5,3.04,0,.85.2,2.03.81,3.29l1.42,3.04c1.18,2.52,2.07,2.88,3.21,2.88.69,0,1.46-.12,2.23-.53ZM409.21,144.16c1.95-1.67,2.52-3.09,2.52-4.67,0-1.75-.69-2.4-1.79-2.4-1.18,0-1.79.85-1.79,2.52,0,1.79.69,3.21,1.06,4.55Z"/>
        <path class="cls-1" d="M429.51,135.22h5.68c3.37,0,6.78,1.18,6.78,6.62v15.19c0,5.44-3.41,6.62-6.78,6.62h-5.68v-28.42ZM432.96,138.23v22.41h1.99c2.6,0,3.57-.97,3.57-3.53v-15.35c0-2.56-.97-3.53-3.57-3.53h-1.99Z"/>
        <path class="cls-1" d="M448.35,153.98v4.22c0,2.11.77,3.21,2.72,3.21s2.68-1.1,2.68-3.21v-1.71h2.88v1.34c0,4.34-2.03,6.25-5.68,6.25s-5.68-1.91-5.68-6.25v-9.42c0-4.34,2.03-6.25,5.68-6.25s5.68,1.91,5.68,6.25v5.56h-8.28ZM448.35,151.38h5.4v-3.33c0-2.11-.77-3.21-2.68-3.21s-2.72,1.1-2.72,3.21v3.33Z"/>
        <path class="cls-1" d="M467.35,158.16c0-4.51-8.04-2.92-8.04-10.23v-.08c0-3.9,2.03-5.68,5.6-5.68s5.56,1.83,5.56,6.05v1.02h-2.88v-1.3c0-2.07-.65-3.25-2.6-3.25s-2.6,1.1-2.6,3.04v.2c0,4.51,8.04,3.09,8.04,10.31v.08c0,3.98-2.03,5.77-5.56,5.77s-5.56-1.83-5.56-6.05v-1.34h2.84v1.62c0,2.07.69,3.25,2.6,3.25s2.6-1.1,2.6-3.05v-.37Z"/>
        <path class="cls-1" d="M481.56,161.01c-.61,1.71-2.11,3.09-4.26,3.09-2.48,0-4.38-1.18-4.38-5.4v-.37c0-7.51,8.53-6.25,8.53-10.03v-.28c0-2.07-.73-3.21-2.56-3.21s-2.6,1.14-2.6,3.21v1.5h-2.88v-1.14c0-4.34,1.95-6.21,5.6-6.21s5.52,1.87,5.52,6.21v8.4c0,3.65.04,5.04.41,6.86h-2.96c-.24-.65-.37-1.62-.41-2.64ZM481.44,152.4c-2.19,1.46-5.44,2.03-5.44,5.68v.37c0,2.4.85,3,2.44,3,1.71,0,3-1.62,3-3.57v-5.48Z"/>
        <path class="cls-1" d="M488.13,163.65v-21.03h2.88v2.76c.57-1.79,2.07-3.21,4.26-3.21,2.48,0,4.06,1.26,4.06,5.6v5.36h-2.88v-5.12c0-2.48-.73-3.17-2.31-3.17-1.71,0-2.92,1.62-2.92,3.53v15.27h-3.09Z"/>
        <path class="cls-1" d="M501.98,163.65v-21.03h2.88v2.76c.57-1.79,2.07-3.21,4.26-3.21,2.48,0,4.06,1.26,4.06,5.6v5.36h-2.88v-5.12c0-2.48-.73-3.17-2.31-3.17-1.71,0-2.92,1.62-2.92,3.53v15.27h-3.09Z"/>
        <path class="cls-1" d="M521.22,164.09c-3.69,0-5.81-1.91-5.81-6.25v-9.42c0-4.34,2.11-6.25,5.81-6.25s5.77,1.91,5.77,6.25v9.42c0,4.34-2.11,6.25-5.77,6.25ZM521.22,144.85c-1.95,0-2.72,1.1-2.72,3.21v10.15c0,2.11.77,3.21,2.72,3.21s2.68-1.1,2.68-3.21v-10.15c0-2.11-.77-3.21-2.68-3.21Z"/>
        <path class="cls-1" d="M530.4,163.65v-28.42h3.09v28.42h-3.09Z"/>
        <path class="cls-1" d="M537.3,163.65v-28.42h3.09v28.42h-3.09Z"/>
        <path class="cls-1" d="M552.12,161.01c-.61,1.71-2.11,3.09-4.26,3.09-2.48,0-4.38-1.18-4.38-5.4v-.37c0-7.51,8.53-6.25,8.53-10.03v-.28c0-2.07-.73-3.21-2.56-3.21s-2.6,1.14-2.6,3.21v1.5h-2.88v-1.14c0-4.34,1.95-6.21,5.6-6.21s5.52,1.87,5.52,6.21v8.4c0,3.65.04,5.04.41,6.86h-2.96c-.24-.65-.37-1.62-.41-2.64ZM552,152.4c-2.19,1.46-5.44,2.03-5.44,5.68v.37c0,2.4.85,3,2.44,3,1.71,0,3-1.62,3-3.57v-5.48Z"/>
        <path class="cls-1" d="M566.94,161.09c-.65,1.71-2.19,3-4.26,3-2.52,0-4.39-1.3-4.39-5.68v-10.56c0-4.38,1.87-5.68,4.39-5.68,1.95,0,3.45,1.18,4.14,2.76v-9.7h3.09v21.56c0,3.65.04,5.04.41,6.86h-2.96c-.24-.65-.37-1.54-.41-2.56ZM566.82,148.38c0-1.91-1.3-3.53-3-3.53-1.58,0-2.44.69-2.44,3.17v10.23c0,2.48.85,3.17,2.44,3.17,1.71,0,3-1.62,3-3.53v-9.5Z"/>
        <path class="cls-1" d="M579.12,164.09c-3.69,0-5.81-1.91-5.81-6.25v-9.42c0-4.34,2.11-6.25,5.81-6.25s5.77,1.91,5.77,6.25v9.42c0,4.34-2.11,6.25-5.77,6.25ZM579.12,144.85c-1.95,0-2.72,1.1-2.72,3.21v10.15c0,2.11.77,3.21,2.72,3.21s2.68-1.1,2.68-3.21v-10.15c0-2.11-.77-3.21-2.68-3.21Z"/>
        <path class="cls-1" d="M588.29,163.65v-21.03h2.88v2.76c.57-1.79,2.07-3.21,4.26-3.21,2.48,0,4.06,1.26,4.06,5.6v5.36h-2.88v-5.12c0-2.48-.73-3.17-2.31-3.17-1.71,0-2.92,1.62-2.92,3.53v15.27h-3.09Z"/>
        <path class="cls-1" d="M622.28,163.65l-2.03-13.85c-.37-2.48-.73-5.48-.93-8.28-.24,2.8-.53,5.81-.89,8.28l-1.99,13.85h-4.06l-4.22-28.42h3.45l2.07,13.81c.45,2.92.81,6.01,1.06,9.18.2-3.17.57-6.25,1.02-9.22l2.07-13.76h3.49l2.07,13.81c.45,2.92.77,6.01,1.02,9.18.24-3.17.57-6.25,1.02-9.22l2.07-13.76h3.17l-4.22,28.42h-4.14Z"/>
        <path class="cls-1" d="M635.59,153.98v4.22c0,2.11.77,3.21,2.72,3.21s2.68-1.1,2.68-3.21v-1.71h2.88v1.34c0,4.34-2.03,6.25-5.68,6.25s-5.68-1.91-5.68-6.25v-9.42c0-4.34,2.03-6.25,5.68-6.25s5.68,1.91,5.68,6.25v5.56h-8.28ZM635.59,151.38h5.4v-3.33c0-2.11-.77-3.21-2.68-3.21s-2.72,1.1-2.72,3.21v3.33Z"/>
        <path class="cls-1" d="M650.25,135.22v9.7c.69-1.58,2.15-2.76,4.14-2.76,2.52,0,4.39,1.3,4.39,5.68v10.56c0,4.39-1.87,5.68-4.39,5.68-2.15,0-3.69-1.38-4.3-3.13l-.65,2.68h-2.27v-28.42h3.09ZM650.25,157.88c0,1.91,1.3,3.53,3,3.53,1.58,0,2.44-.69,2.44-3.17v-10.23c0-2.48-.85-3.17-2.44-3.17-1.71,0-3,1.62-3,3.53v9.5Z"/>
      </g>
    </g>
  </g>
</svg>